<svg xmlns="http://www.w3.org/2000/svg" style="display: none">

    <symbol id="relief-icon" width="24" height="24" viewBox="0 0 24 24" fill="none" xmlns="http://www.w3.org/2000/svg">
        <path d="M58.3898 40.9305C56.9679 39.9416 54.8233 39.8686 52.6447 40.7426L38.5197 46.3859C38.5406 46.172 38.5406 45.945 38.5197 45.718C38.4466 44.7083 37.8126 42.3524 33.5834 42.3106C29.9778 42.2767 26.1683 42.1906 22.79 41.5279C22.2551 41.4209 21.749 41.3087 21.2481 41.2018C18.1825 40.5208 15.5186 39.9259 9.38462 41.7105V41.6766C9.38462 40.4269 8.36973 39.412 7.11479 39.412L2.27244 39.4146C1.02271 39.4146 0.00260871 40.4295 0.00260871 41.6792L0 57.4406C0 58.6903 1.01489 59.7104 2.26983 59.7104H7.12C8.2497 59.7104 9.19159 58.8755 9.35857 57.7928C11.4771 57.9337 12.6381 58.1737 13.3452 58.3459C18.2215 59.5591 22.2758 60.1122 25.8819 60.1122C34.8045 60.1122 40.9907 56.7387 50.0856 51.784C53.6652 49.8324 58.2595 47.0617 59.8385 44.9119C59.9376 44.771 59.9976 44.6118 59.9976 44.437C60.0524 42.5063 59.1523 41.4627 58.3905 40.9305H58.3898ZM7.1196 58.0404H2.27204C1.93808 58.0404 1.67196 57.7742 1.67196 57.4403L1.66935 41.6762C1.66935 41.3501 1.93547 41.0814 2.26943 41.0814H7.1196C7.45355 41.0814 7.71967 41.3475 7.71967 41.6762V42.8373V42.8451L7.72228 57.4403C7.72228 57.7664 7.44833 58.0404 7.1196 58.0404ZM49.2922 50.32C36.487 57.299 30.0557 60.8055 13.7466 56.7251C12.9639 56.532 11.6959 56.2711 9.38435 56.1172V43.4529C15.4477 41.6292 17.973 42.1902 20.8851 42.8372C21.3939 42.952 21.9131 43.0642 22.4688 43.1712C25.9883 43.8599 29.8759 43.9461 33.5621 43.9852C35.6519 44.0061 36.7608 44.627 36.8495 45.8481C36.9017 46.5551 36.6904 47.1239 36.1894 47.6327C34.1779 49.6364 28.0937 49.9312 23.071 49.5425C22.6092 49.5086 22.21 49.8504 22.1761 50.3095C22.1422 50.7713 22.484 51.1705 22.9432 51.2044C23.9189 51.2774 25.2939 51.3583 26.8306 51.3583C30.585 51.3583 35.2783 50.8965 37.3709 48.8145C37.457 48.7284 37.5379 48.6397 37.6109 48.5536L53.2674 42.2946C54.8981 41.6397 56.4922 41.6475 57.4419 42.3076C58.0028 42.7016 58.3029 43.3173 58.3446 44.1365C57.1053 45.5976 53.8466 47.8362 49.2911 50.3199L49.2922 50.32Z" fill="white"/>
        <path d="M30.0042 37.6167C40.3775 37.6167 48.8125 29.1817 48.8125 18.8084C48.8125 8.43505 40.3775 0 30.0042 0C19.6308 0 11.1958 8.43505 11.1958 18.8084C11.1958 29.1817 19.6308 37.6167 30.0042 37.6167ZM30.0042 1.90421C39.3289 1.90421 46.9083 9.48634 46.9083 18.8084C46.9083 28.1251 39.3262 35.7125 30.0042 35.7125C20.6875 35.7125 13.1 28.1304 13.1 18.8084C13.1 9.48367 20.6795 1.90421 30.0042 1.90421Z" fill="white"/>
        <path d="M20.9141 22.7897H26.0225V27.8981C26.0225 28.4251 26.4504 28.8478 26.9722 28.8478H33.0304C33.5574 28.8478 33.9801 28.4199 33.9801 27.8981V22.7897H39.0833C39.6103 22.7897 40.033 22.3618 40.033 21.84V15.7818C40.033 15.2548 39.6051 14.8321 39.0833 14.8321H33.9801V9.72888C33.9801 9.20186 33.5522 8.77917 33.0304 8.77917H26.9722C26.4452 8.77917 26.0225 9.20705 26.0225 9.72888V14.8321H20.9141C20.387 14.8321 19.9644 15.26 19.9644 15.7818V21.84C19.9644 22.3618 20.3922 22.7897 20.9141 22.7897ZM21.869 16.7315H26.9774C27.5044 16.7315 27.9271 16.3036 27.9271 15.7818V10.6786H32.0807V15.7818C32.0807 16.3088 32.5086 16.7315 33.0304 16.7315H38.1337V20.8851H33.0304C32.5034 20.8851 32.0807 21.313 32.0807 21.8348V26.9433H27.9271V21.8348C27.9271 21.3078 27.4992 20.8851 26.9774 20.8851H21.869V16.7315Z" fill="white"/>
    </symbol>

    <symbol id="donate-online-icon" width="76" height="76" viewBox="0 0 76 76" fill="none" xmlns="http://www.w3.org/2000/svg">
    <path d="M12.4438 50.284L50.2855 12.4424" stroke="white" stroke-width="3.61905" stroke-miterlimit="10" stroke-linecap="round" stroke-linejoin="round"/>
    <path d="M35.1533 57.884L38.9533 54.084" stroke="white" stroke-width="3.61905" stroke-miterlimit="10" stroke-linecap="round" stroke-linejoin="round"/>
    <path d="M43.6777 49.3642L51.2461 41.7959" stroke="white" stroke-width="3.61905" stroke-miterlimit="10" stroke-linecap="round" stroke-linejoin="round"/>
    <path d="M11.4042 32.4234L32.4309 11.3968C39.1442 4.68342 42.5009 4.65175 49.1509 11.3018L64.6992 26.8501C71.3492 33.5001 71.3175 36.8568 64.6042 43.5701L43.5775 64.5968C36.8642 71.3101 33.5075 71.3418 26.8575 64.6918L11.3092 49.1434C4.65918 42.4934 4.65918 39.1684 11.4042 32.4234Z" stroke="white" stroke-width="3.61905" stroke-linecap="round" stroke-linejoin="round"/>
    <path d="M6.3335 69.6621H69.6668" stroke="white" stroke-width="3.61905" stroke-linecap="round" stroke-linejoin="round"/>
    </symbol>

    <symbol id="dontion-status-equiry-icon" width="76" height="76" viewBox="0 0 76 76" fill="none" xmlns="http://www.w3.org/2000/svg">
    <path d="M57.4428 68.4624C54.6562 69.2857 51.3628 69.6657 47.4995 69.6657H28.4995C24.6362 69.6657 21.3428 69.2857 18.5562 68.4624C19.2528 60.229 27.7078 53.7373 37.9995 53.7373C48.2912 53.7373 56.7462 60.229 57.4428 68.4624Z" stroke="#0B1B35" stroke-width="3.61905" stroke-linecap="round" stroke-linejoin="round"/>
    <path d="M47.5002 6.3335H28.5002C12.6668 6.3335 6.3335 12.6668 6.3335 28.5002V47.5002C6.3335 59.4702 9.9435 66.0251 18.5568 68.4635C19.2535 60.2301 27.7085 53.7384 38.0002 53.7384C48.2918 53.7384 56.7468 60.2301 57.4435 68.4635C66.0568 66.0251 69.6668 59.4702 69.6668 47.5002V28.5002C69.6668 12.6668 63.3335 6.3335 47.5002 6.3335ZM38.0002 44.8718C31.7302 44.8718 26.6635 39.7736 26.6635 33.5036C26.6635 27.2336 31.7302 22.1668 38.0002 22.1668C44.2702 22.1668 49.3368 27.2336 49.3368 33.5036C49.3368 39.7736 44.2702 44.8718 38.0002 44.8718Z" stroke="#0B1B35" stroke-width="3.61905" stroke-linecap="round" stroke-linejoin="round"/>
    <path d="M49.3364 33.5032C49.3364 39.7732 44.2698 44.8715 37.9998 44.8715C31.7298 44.8715 26.6631 39.7732 26.6631 33.5032C26.6631 27.2332 31.7298 22.1665 37.9998 22.1665C44.2698 22.1665 49.3364 27.2332 49.3364 33.5032Z" stroke="#0B1B35" stroke-width="3.61905" stroke-linecap="round" stroke-linejoin="round"/>
    </symbol>

    <symbol  id="top-donars-icon" width="76" height="76" viewBox="0 0 76 76" fill="none" xmlns="http://www.w3.org/2000/svg">
    <path d="M48.4448 29.3368L47.3427 33.2254H26.7032L27.8052 29.3368H48.4448ZM38.4005 53.8335L27.1282 40.1525L27.0968 37.0825H32.6857C34.0816 37.0825 35.2623 36.8674 36.2279 36.4371C37.1935 36.0068 37.9282 35.3823 38.432 34.5636C38.9358 33.7345 39.1877 32.7269 39.1877 31.5409C39.1877 29.7776 38.6629 28.3765 37.6133 27.3374C36.5638 26.2983 34.9212 25.7788 32.6857 25.7788H26.7032L27.8524 21.5911H32.6857C35.2886 21.5911 37.4349 22.0056 39.1247 22.8348C40.8145 23.6639 42.0739 24.8132 42.9031 26.2826C43.7323 27.752 44.1468 29.447 44.1468 31.3677C44.1468 33.0785 43.8057 34.6266 43.1235 36.012C42.4413 37.3974 41.355 38.5257 39.8646 39.3968C38.3743 40.268 36.4168 40.777 33.9924 40.9239L33.8507 40.9554L44.1468 53.5659V53.8335H38.4005ZM48.4605 21.5911L47.3427 25.5112L30.8437 25.4167L31.9615 21.5911H48.4605Z" fill="#0B1B35"/>
    <path d="M38.0002 69.6668C55.4892 69.6668 69.6668 55.4892 69.6668 38.0002C69.6668 20.5111 55.4892 6.3335 38.0002 6.3335C20.5111 6.3335 6.3335 20.5111 6.3335 38.0002C6.3335 55.4892 20.5111 69.6668 38.0002 69.6668Z" stroke="#0B1B35" stroke-width="3.61905" stroke-linecap="round" stroke-linejoin="round"/>
    </symbol>

    <symbol id="apply-online-icon" width="76" height="76" viewBox="0 0 76 76" fill="none" xmlns="http://www.w3.org/2000/svg">
    <path d="M20.3935 6.3335H55.5752C66.8485 6.3335 69.6668 9.15183 69.6668 20.3935V40.4385C69.6668 51.7118 66.8485 54.4985 55.6068 54.4985H20.3935C9.15183 54.5302 6.3335 51.7118 6.3335 40.4702V20.3935C6.3335 9.15183 9.15183 6.3335 20.3935 6.3335Z" stroke="#0B1B35" stroke-width="3.61905" stroke-linecap="round" stroke-linejoin="round"/>
    <path d="M38 54.5308V69.6674" stroke="#0B1B35" stroke-width="3.61905" stroke-linecap="round" stroke-linejoin="round"/>
    <path d="M6.3335 41.1665H69.6668" stroke="#0B1B35" stroke-width="3.61905" stroke-linecap="round" stroke-linejoin="round"/>
    <path d="M23.75 69.6665H52.25" stroke="#0B1B35" stroke-width="3.61905" stroke-linecap="round" stroke-linejoin="round"/>
    </symbol>

    <symbol id="application-status-icon" width="76" height="76" viewBox="0 0 76 76" fill="none" xmlns="http://www.w3.org/2000/svg">
    <path d="M58.0133 38.0004C66.2467 38.0004 69.6667 34.8337 66.6267 24.4471C64.5683 17.4487 58.5517 11.4321 51.5533 9.37374C41.1667 6.33374 38 9.75374 38 17.9871V27.1071C38 34.8337 41.1667 38.0004 47.5 38.0004H58.0133Z" stroke="#0B1B35" stroke-width="3.61905" stroke-linecap="round" stroke-linejoin="round"/>
    <path d="M63.333 46.5494C60.388 61.2111 46.328 71.8511 30.3364 69.2544C18.3347 67.3228 8.67636 57.6644 6.71303 45.6628C4.14803 29.7344 14.7247 15.6744 29.323 12.6978" stroke="#0B1B35" stroke-width="3.61905" stroke-linecap="round" stroke-linejoin="round"/>
    </symbol>

    <symbol id="bullet-points" width="28" height="19" viewBox="0 0 28 19" fill="none" xmlns="http://www.w3.org/2000/svg">
    <mask id="mask0_17_643" style="mask-type:luminance" maskUnits="userSpaceOnUse" x="0" y="0" width="28" height="19">
    <path d="M1.51851 16.5252L1.50754 6.62203C1.50753 6.59991 1.51462 6.57814 1.52817 6.55878C1.54171 6.53942 1.56126 6.5231 1.58496 6.51137L11.29 1.73367C11.5851 1.58566 11.9144 1.48572 12.2588 1.43973C12.6032 1.39373 12.9557 1.4026 13.2956 1.4658C13.6356 1.52901 13.9561 1.64529 14.2385 1.80783C14.5208 1.97037 14.7593 2.17589 14.94 2.41236C15.1207 2.64883 15.2399 2.91149 15.2906 3.18494C15.3414 3.4584 15.3227 3.73715 15.2356 4.00486C15.1485 4.27257 14.9947 4.52386 14.7834 4.74399C14.5721 4.96413 14.3074 5.14869 14.0048 5.28686L11.3184 6.53863L24.6156 6.52391C25.2856 6.52317 25.9284 6.73312 26.4026 7.10757C26.8768 7.48203 27.1435 7.99031 27.1441 8.52061C27.1447 9.05091 26.8791 9.55979 26.4058 9.93529C25.9324 10.3108 25.2901 10.5222 24.6201 10.5229L18.6415 10.5295C18.2666 10.5299 17.9586 10.7661 17.9467 11.0629L17.7046 16.9577C17.6928 17.2451 17.5403 17.5177 17.2794 17.7178C17.0184 17.918 16.6694 18.0301 16.3061 18.0305L3.44278 18.0447C2.93288 18.0453 2.44368 17.8855 2.08281 17.6006C1.72194 17.3156 1.51895 16.9288 1.51851 16.5252Z" fill="white" stroke="white" stroke-width="1.69993" stroke-linecap="round" stroke-linejoin="round"/>
    </mask>
    <g mask="url(#mask0_17_643)">
    <path d="M29.6953 -2.27393L29.7223 22.0731L-1.03906 22.1072L-1.06602 -2.23987L29.6953 -2.27393Z" fill="white"/>
    </g>
    </symbol>

</svg>
